<?xml version="1.0" encoding="UTF-8"?>
<svg xmlns="http://www.w3.org/2000/svg" xmlns:xlink="http://www.w3.org/1999/xlink" width="350pt" height="397pt" viewBox="0 0 350 397" version="1.1">
<g id="surface1">
<path style=" stroke:none;fill-rule:nonzero;fill:rgb(0%,0%,0%);fill-opacity:1;" d="M 0.917969 0.503906 L 0.917969 1.007812 L 0 1.007812 L 0 396.101562 L 0.917969 396.101562 L 0.917969 397.019531 L 78.890625 397.019531 L 78.890625 396.101562 L 79.808594 396.101562 L 79.828125 374.488281 L 79.855469 352.882812 L 151.617188 352.855469 L 223.390625 352.835938 L 223.40625 374.441406 L 223.433594 396.058594 L 223.921875 396.085938 L 224.398438 396.113281 L 224.398438 397.019531 L 229.527344 397.019531 L 229.527344 395.09375 L 225.3125 395.09375 L 225.3125 284.910156 L 223.390625 284.910156 L 223.390625 350.910156 L 79.808594 350.910156 L 79.808594 284.175781 L 77.882812 284.175781 L 77.882812 317.085938 L 67.328125 317.101562 L 56.761719 317.128906 L 56.734375 318.109375 L 56.707031 319.101562 L 77.882812 319.101562 L 77.882812 395.09375 L 1.925781 395.09375 L 1.925781 334.683594 L 24.8125 334.667969 L 47.691406 334.640625 L 47.71875 334.152344 L 47.746094 333.675781 L 48.65625 333.675781 L 48.65625 319.109375 L 49.230469 319.082031 L 49.800781 319.054688 L 49.800781 317.128906 L 49.230469 317.101562 L 48.65625 317.074219 L 48.65625 311.851562 L 47.71875 311.878906 L 46.777344 311.90625 L 46.75 322.328125 L 46.730469 332.757812 L 1.925781 332.757812 L 1.925781 303.425781 L 46.730469 303.425781 L 46.730469 304.984375 L 48.65625 304.984375 L 48.65625 300.492188 L 46.730469 300.492188 L 46.730469 301.5 L 1.925781 301.5 L 1.925781 272.257812 L 46.730469 272.257812 L 46.730469 294.257812 L 48.65625 294.257812 L 48.65625 272.257812 L 55.710938 272.257812 L 55.710938 270.332031 L 1.925781 270.332031 L 1.941406 250.503906 L 1.96875 230.6875 L 21.851562 230.585938 C 32.792969 230.53125 46.363281 230.449219 52.027344 230.421875 L 62.308594 230.355469 L 62.308594 250.84375 C 62.308594 264.449219 62.335938 271.339844 62.398438 271.339844 C 62.453125 271.339844 62.488281 271.542969 62.488281 271.800781 L 62.488281 272.257812 L 63.316406 272.257812 L 63.316406 271.339844 L 64.230469 271.339844 L 64.230469 146.945312 L 62.308594 146.945312 L 62.308594 228.441406 L 59.816406 228.441406 C 58.441406 228.441406 46.988281 228.503906 34.359375 228.578125 C 21.734375 228.652344 9.273438 228.714844 6.671875 228.714844 L 1.925781 228.714844 L 1.925781 137.136719 L 62.308594 137.136719 L 62.308594 140.894531 L 64.230469 140.894531 L 64.230469 105.867188 L 63.296875 105.898438 L 62.351562 105.925781 L 62.324219 120.5625 L 62.308594 135.210938 L 1.925781 135.210938 L 1.925781 95.519531 L 62.308594 95.519531 L 62.308594 99.003906 L 64.230469 99.003906 L 64.230469 95.519531 L 66.246094 95.519531 L 66.246094 93.59375 L 1.925781 93.59375 L 1.925781 1.925781 L 223.390625 1.925781 L 223.390625 93.59375 L 73.210938 93.59375 L 73.210938 95.519531 L 224.398438 95.519531 L 224.398438 94.601562 L 225.3125 94.601562 L 225.332031 48.28125 L 225.359375 1.972656 L 286.730469 1.945312 L 348.09375 1.925781 L 348.09375 31.257812 L 290.917969 31.257812 L 290.917969 33.183594 L 348.09375 33.183594 L 348.09375 135.210938 L 256.558594 135.210938 L 256.558594 33.183594 L 271.585938 33.183594 L 271.585938 31.257812 L 255.550781 31.257812 L 255.550781 32.167969 L 255.074219 32.195312 L 254.589844 32.222656 L 254.589844 260.660156 L 256.511719 260.660156 L 256.539062 198.894531 L 256.558594 137.136719 L 348.09375 137.136719 L 348.09375 270.332031 L 256.566406 270.332031 L 256.539062 268.984375 L 256.511719 267.628906 L 254.589844 267.628906 L 254.589844 349.304688 L 256.511719 349.304688 L 256.539062 310.777344 L 256.558594 272.257812 L 348.09375 272.257812 L 348.09375 395.09375 L 256.558594 395.09375 L 256.558594 369.246094 L 255.597656 369.246094 C 254.898438 369.246094 254.617188 369.28125 254.589844 369.363281 C 254.570312 369.417969 254.535156 375.671875 254.523438 383.25 L 254.496094 397.019531 L 349.101562 397.019531 L 349.101562 396.101562 L 350.019531 396.101562 L 350.019531 1.007812 L 349.113281 1.007812 L 349.085938 0.523438 L 349.054688 0.046875 L 174.992188 0.0195312 L 0.917969 0 Z M 0.917969 0.503906 "/>
<path style=" stroke:none;fill-rule:nonzero;fill:rgb(0%,0%,0%);fill-opacity:1;" d="M 78.890625 128.292969 L 78.890625 128.796875 L 77.882812 128.796875 L 77.882812 191.128906 L 79.808594 191.128906 L 79.808594 129.804688 L 223.390625 129.804688 L 223.390625 196.539062 L 225.3125 196.539062 L 225.3125 128.796875 L 224.40625 128.796875 L 224.378906 128.308594 L 224.351562 127.832031 L 151.625 127.804688 L 78.890625 127.785156 Z M 78.890625 128.292969 "/>
<path style=" stroke:none;fill-rule:nonzero;fill:rgb(0%,0%,0%);fill-opacity:1;" d="M 77.882812 247.738281 L 77.882812 277.207031 L 78.910156 277.207031 L 78.875 277.683594 L 78.847656 278.171875 L 79.285156 278.199219 L 79.714844 278.226562 L 79.726562 277.832031 C 79.734375 277.613281 79.761719 276.960938 79.796875 276.382812 L 79.855469 275.328125 L 151.625 275.300781 L 223.390625 275.28125 L 223.390625 278.125 L 225.3125 278.125 L 225.3125 223.671875 L 223.390625 223.671875 L 223.390625 273.359375 L 79.808594 273.359375 L 79.808594 218.265625 L 77.882812 218.265625 Z M 77.882812 247.738281 "/>
</g>
</svg>
