<?xml version="1.0" encoding="UTF-8" standalone="no"?><!-- Generator: Gravit.io --><svg xmlns="http://www.w3.org/2000/svg" xmlns:xlink="http://www.w3.org/1999/xlink" style="isolation:isolate" viewBox="0 0 3418.583 3877.795" width="3418.583pt" height="3877.795pt"><g><path d=" M 8.949 4.924 L 8.949 9.849 L 4.475 9.849 L 0 9.849 L 0 1939.345 L 0 3868.842 L 4.475 3868.842 L 8.949 3868.842 L 8.949 3873.318 L 8.949 3877.795 L 389.736 3877.795 L 770.523 3877.795 L 770.523 3873.318 L 770.523 3868.842 L 774.998 3868.842 L 779.473 3868.842 L 779.652 3657.716 L 779.92 3446.68 L 1480.819 3446.412 L 2181.807 3446.233 L 2181.986 3657.269 L 2182.255 3868.394 L 2186.998 3868.663 L 2191.652 3868.931 L 2191.652 3873.408 L 2191.652 3877.795 L 2216.709 3877.795 L 2241.767 3877.795 L 2241.767 3868.394 L 2241.767 3858.993 L 2221.184 3858.993 L 2200.601 3858.993 L 2200.601 3320.883 L 2200.601 2782.773 L 2191.204 2782.773 L 2181.807 2782.773 L 2181.807 3105.101 L 2181.807 3427.43 L 1480.64 3427.43 L 779.473 3427.43 L 779.473 3101.52 L 779.473 2775.61 L 770.076 2775.61 L 760.679 2775.61 L 760.679 2936.326 L 760.679 3097.043 L 657.585 3097.222 L 554.401 3097.491 L 554.133 3107.071 L 553.864 3116.741 L 657.316 3116.741 L 760.679 3116.741 L 760.679 3487.867 L 760.679 3858.993 L 389.736 3858.993 L 18.793 3858.993 L 18.793 3563.972 L 18.793 3268.952 L 242.344 3268.773 L 465.804 3268.504 L 466.073 3263.759 L 466.341 3259.103 L 470.816 3259.103 L 475.201 3259.103 L 475.201 3187.922 L 475.201 3116.831 L 480.839 3116.562 L 486.387 3116.293 L 486.387 3106.892 L 486.387 3097.491 L 480.839 3097.222 L 475.201 3096.954 L 475.201 3071.436 L 475.201 3045.918 L 466.073 3046.187 L 456.855 3046.455 L 456.587 3148.258 L 456.408 3250.149 L 237.6 3250.149 L 18.793 3250.149 L 18.793 3106.892 L 18.793 2963.635 L 237.6 2963.635 L 456.408 2963.635 L 456.408 2971.245 L 456.408 2978.856 L 465.804 2978.856 L 475.201 2978.856 L 475.201 2956.92 L 475.201 2934.983 L 465.804 2934.983 L 456.408 2934.983 L 456.408 2939.908 L 456.408 2944.832 L 237.6 2944.832 L 18.793 2944.832 L 18.793 2802.023 L 18.793 2659.213 L 237.6 2659.213 L 456.408 2659.213 L 456.408 2766.656 L 456.408 2874.099 L 465.804 2874.099 L 475.201 2874.099 L 475.201 2766.656 L 475.201 2659.213 L 509.655 2659.213 L 544.109 2659.213 L 544.109 2649.812 L 544.109 2640.411 L 281.451 2640.411 L 18.793 2640.411 L 18.972 2446.745 L 19.241 2253.168 L 213.438 2252.183 C 320.291 2251.646 452.828 2250.84 508.134 2250.572 L 608.544 2249.945 L 608.544 2450.057 C 608.544 2582.929 608.812 2650.26 609.438 2650.26 C 609.975 2650.26 610.333 2652.229 610.333 2654.736 L 610.333 2659.213 L 614.36 2659.213 L 618.388 2659.213 L 618.388 2654.736 L 618.388 2650.26 L 622.862 2650.26 L 627.337 2650.26 L 627.337 2042.759 L 627.337 1435.259 L 617.94 1435.259 L 608.544 1435.259 L 608.544 1833.245 L 608.544 2231.232 L 584.202 2231.232 C 570.778 2231.232 458.913 2231.859 335.594 2232.575 C 212.274 2233.291 90.566 2233.918 65.15 2233.918 L 18.793 2233.918 L 18.793 1786.687 L 18.793 1339.455 L 313.668 1339.455 L 608.544 1339.455 L 608.544 1357.81 L 608.544 1376.165 L 617.94 1376.165 L 627.337 1376.165 L 627.337 1205.152 L 627.337 1034.049 L 618.209 1034.318 L 608.991 1034.586 L 608.722 1177.575 L 608.544 1320.653 L 313.668 1320.653 L 18.793 1320.653 L 18.793 1126.808 L 18.793 932.963 L 313.668 932.963 L 608.544 932.963 L 608.544 949.975 L 608.544 966.987 L 617.94 966.987 L 627.337 966.987 L 627.337 949.975 L 627.337 932.963 L 637.181 932.963 L 647.025 932.963 L 647.025 923.562 L 647.025 914.16 L 332.909 914.16 L 18.793 914.16 L 18.793 466.481 L 18.793 18.803 L 1100.3 18.803 L 2181.807 18.803 L 2181.807 466.481 L 2181.807 914.16 L 1448.423 914.16 L 715.039 914.16 L 715.039 923.562 L 715.039 932.963 L 1453.345 932.963 L 2191.652 932.963 L 2191.652 928.486 L 2191.652 924.009 L 2196.126 924.009 L 2200.601 924.009 L 2200.78 471.585 L 2201.048 19.25 L 2800.464 18.982 L 3399.789 18.803 L 3399.789 162.06 L 3399.789 305.317 L 3120.575 305.317 L 2841.361 305.317 L 2841.361 314.718 L 2841.361 324.12 L 3120.575 324.12 L 3399.789 324.12 L 3399.789 822.386 L 3399.789 1320.653 L 2952.778 1320.653 L 2505.767 1320.653 L 2505.767 822.386 L 2505.767 324.12 L 2579.151 324.12 L 2652.534 324.12 L 2652.534 314.718 L 2652.534 305.317 L 2574.229 305.317 L 2495.923 305.317 L 2495.923 309.704 L 2495.923 314.181 L 2491.27 314.45 L 2486.527 314.718 L 2486.527 1430.334 L 2486.527 2545.95 L 2495.923 2545.95 L 2505.32 2545.95 L 2505.588 1942.658 L 2505.767 1339.455 L 2952.778 1339.455 L 3399.789 1339.455 L 3399.789 1989.933 L 3399.789 2640.411 L 2952.778 2640.411 L 2505.857 2640.411 L 2505.588 2627.249 L 2505.32 2613.998 L 2495.923 2613.998 L 2486.527 2613.998 L 2486.527 3012.879 L 2486.527 3411.761 L 2495.923 3411.761 L 2505.32 3411.761 L 2505.588 3035.443 L 2505.767 2659.213 L 2952.778 2659.213 L 3399.789 2659.213 L 3399.789 3259.103 L 3399.789 3858.993 L 2952.778 3858.993 L 2505.767 3858.993 L 2505.767 3732.747 L 2505.767 3606.502 L 2496.371 3606.502 C 2489.569 3606.502 2486.795 3606.86 2486.527 3607.666 C 2486.348 3608.203 2485.99 3669.266 2485.9 3743.313 L 2485.632 3877.795 L 2947.677 3877.795 L 3409.634 3877.795 L 3409.634 3873.318 L 3409.634 3868.842 L 3414.108 3868.842 L 3418.583 3868.842 L 3418.583 1939.345 L 3418.583 9.849 L 3414.198 9.849 L 3409.723 9.849 L 3409.455 5.104 L 3409.186 0.448 L 1709.112 0.179 L 8.949 0 L 8.949 4.924 Z " fill="rgb(0,0,0)"/><path d=" M 770.523 1253.053 L 770.523 1257.978 L 765.601 1257.978 L 760.679 1257.978 L 760.679 1562.4 L 760.679 1866.821 L 770.076 1866.821 L 779.473 1866.821 L 779.473 1567.324 L 779.473 1267.827 L 1480.64 1267.827 L 2181.807 1267.827 L 2181.807 1593.737 L 2181.807 1919.647 L 2191.204 1919.647 L 2200.601 1919.647 L 2200.601 1588.813 L 2200.601 1257.978 L 2196.216 1257.978 L 2191.741 1257.978 L 2191.473 1253.233 L 2191.204 1248.577 L 1480.909 1248.308 L 770.523 1248.129 L 770.523 1253.053 Z " fill="rgb(0,0,0)"/><path d=" M 760.679 2419.705 L 760.679 2707.562 L 765.691 2707.562 L 770.702 2707.562 L 770.344 2712.218 L 770.076 2716.964 L 774.372 2717.232 L 778.578 2717.501 L 778.667 2713.651 C 778.757 2711.502 779.025 2705.145 779.383 2699.504 L 779.92 2689.208 L 1480.909 2688.939 L 2181.807 2688.76 L 2181.807 2702.638 L 2181.807 2716.516 L 2191.204 2716.516 L 2200.601 2716.516 L 2200.601 2450.595 L 2200.601 2184.673 L 2191.204 2184.673 L 2181.807 2184.673 L 2181.807 2427.315 L 2181.807 2669.957 L 1480.64 2669.957 L 779.473 2669.957 L 779.473 2400.902 L 779.473 2131.847 L 770.076 2131.847 L 760.679 2131.847 L 760.679 2419.705 Z " fill="rgb(0,0,0)"/></g></svg>